{
  "version": "1.1.6",
  "modules": [
    {
      "id": 47,
      "plugin": "Core",
      "version": "1.1.6",
      "model": "AudioInterface",
      "params": [],
      "leftModuleId": 104,
      "data": {
        "audio": {
          "driver": 6,
          "deviceName": "扬声器 (Razer Surround Audio Controller)",
          "offset": 0,
          "maxChannels": 8,
          "sampleRate": 44100,
          "blockSize": 2048
        }
      },
      "pos": [
        113,
        1
      ]
    },
    {
      "id": 49,
      "plugin": "Fundamental",
      "version": "1.4.0",
      "model": "VCMixer",
      "params": [
        {
          "id": 0,
          "value": 0.822000384
        },
        {
          "id": 1,
          "value": 0.840043008
        },
        {
          "id": 2,
          "value": 1.41421354
        },
        {
          "id": 3,
          "value": 0.799030781
        },
        {
          "id": 4,
          "value": 1.17238283
        }
      ],
      "leftModuleId": 59,
      "pos": [
        92,
        1
      ]
    },
    {
      "id": 58,
      "plugin": "AudibleInstruments",
      "version": "1.0.0",
      "model": "Tides2",
      "params": [
        {
          "id": 0,
          "value": 0.0
        },
        {
          "id": 1,
          "value": 0.0
        },
        {
          "id": 2,
          "value": 0.0
        },
        {
          "id": 3,
          "value": -48.0
        },
        {
          "id": 4,
          "value": 0.505499959
        },
        {
          "id": 5,
          "value": 0.0
        },
        {
          "id": 6,
          "value": 0.499499917
        },
        {
          "id": 7,
          "value": 0.498000056
        },
        {
          "id": 8,
          "value": 0.00700003142
        },
        {
          "id": 9,
          "value": -0.0140000358
        },
        {
          "id": 10,
          "value": 0.0
        },
        {
          "id": 11,
          "value": 0.0
        },
        {
          "id": 12,
          "value": 0.0
        }
      ],
      "rightModuleId": 59,
      "data": {
        "range": 1,
        "output": 0,
        "ramp": 1
      },
      "pos": [
        64,
        1
      ]
    },
    {
      "id": 59,
      "plugin": "AudibleInstruments",
      "version": "1.0.0",
      "model": "Rings",
      "params": [
        {
          "id": 0,
          "value": 0.0
        },
        {
          "id": 1,
          "value": 0.0
        },
        {
          "id": 2,
          "value": 53.099987
        },
        {
          "id": 3,
          "value": 0.689499915
        },
        {
          "id": 4,
          "value": 0.506499946
        },
        {
          "id": 5,
          "value": 0.594999731
        },
        {
          "id": 6,
          "value": 0.506499767
        },
        {
          "id": 7,
          "value": 0.0409999341
        },
        {
          "id": 8,
          "value": 0.0170000661
        },
        {
          "id": 9,
          "value": 0.038999863
        },
        {
          "id": 10,
          "value": 0.011000026
        },
        {
          "id": 11,
          "value": 0.017000353
        }
      ],
      "leftModuleId": 58,
      "rightModuleId": 49,
      "data": {
        "polyphony": 2,
        "model": 0,
        "easterEgg": false
      },
      "pos": [
        78,
        1
      ]
    },
    {
      "id": 60,
      "plugin": "Befaco",
      "version": "1.0.0",
      "model": "Rampage",
      "params": [
        {
          "id": 0,
          "value": 1.0
        },
        {
          "id": 1,
          "value": 1.0
        },
        {
          "id": 2,
          "value": -0.90899992
        },
        {
          "id": 3,
          "value": -0.244999766
        },
        {
          "id": 4,
          "value": 0.0
        },
        {
          "id": 5,
          "value": 0.0
        },
        {
          "id": 6,
          "value": 1.0
        },
        {
          "id": 7,
          "value": 1.0
        },
        {
          "id": 8,
          "value": 0.49800083
        },
        {
          "id": 9,
          "value": 1.0
        },
        {
          "id": 10,
          "value": 0.0
        },
        {
          "id": 11,
          "value": 1.0
        },
        {
          "id": 12,
          "value": 0.109499991
        }
      ],
      "leftModuleId": 61,
      "pos": [
        40,
        1
      ]
    },
    {
      "id": 61,
      "plugin": "AudibleInstruments",
      "version": "1.0.0",
      "model": "Stages",
      "params": [
        {
          "id": 0,
          "value": 0.5
        },
        {
          "id": 1,
          "value": 0.5
        },
        {
          "id": 2,
          "value": 0.5
        },
        {
          "id": 3,
          "value": 0.5
        },
        {
          "id": 4,
          "value": 0.5
        },
        {
          "id": 5,
          "value": 0.5
        },
        {
          "id": 6,
          "value": 0.0
        },
        {
          "id": 7,
          "value": 0.0
        },
        {
          "id": 8,
          "value": 0.0
        },
        {
          "id": 9,
          "value": 0.0
        },
        {
          "id": 10,
          "value": 0.0
        },
        {
          "id": 11,
          "value": 0.0
        },
        {
          "id": 12,
          "value": 0.0
        },
        {
          "id": 13,
          "value": 0.0
        },
        {
          "id": 14,
          "value": 0.0
        },
        {
          "id": 15,
          "value": 0.0
        },
        {
          "id": 16,
          "value": 0.0
        },
        {
          "id": 17,
          "value": 0.0
        }
      ],
      "leftModuleId": 52,
      "rightModuleId": 60,
      "data": {
        "configurations": [
          {
            "type": 1,
            "loop": false
          },
          {
            "type": 1,
            "loop": false
          },
          {
            "type": 1,
            "loop": false
          },
          {
            "type": 1,
            "loop": false
          },
          {
            "type": 1,
            "loop": false
          },
          {
            "type": 1,
            "loop": false
          }
        ]
      },
      "pos": [
        26,
        1
      ]
    },
    {
      "id": 62,
      "plugin": "AudibleInstruments",
      "version": "1.0.0",
      "model": "Elements",
      "params": [
        {
          "id": 0,
          "value": 1.0
        },
        {
          "id": 1,
          "value": 0.0
        },
        {
          "id": 2,
          "value": 0.0
        },
        {
          "id": 3,
          "value": 0.5
        },
        {
          "id": 4,
          "value": 0.0
        },
        {
          "id": 5,
          "value": 0.0
        },
        {
          "id": 6,
          "value": 0.0
        },
        {
          "id": 7,
          "value": 0.519000113
        },
        {
          "id": 8,
          "value": 0.489000082
        },
        {
          "id": 9,
          "value": 0.0
        },
        {
          "id": 10,
          "value": 0.111000136
        },
        {
          "id": 11,
          "value": 0.5
        },
        {
          "id": 12,
          "value": 0.5
        },
        {
          "id": 13,
          "value": 0.5
        },
        {
          "id": 14,
          "value": 0.925000012
        },
        {
          "id": 15,
          "value": 0.50850004
        },
        {
          "id": 16,
          "value": 1.61300051
        },
        {
          "id": 17,
          "value": 0.0
        },
        {
          "id": 18,
          "value": 0.0
        },
        {
          "id": 19,
          "value": 0.0
        },
        {
          "id": 20,
          "value": 0.0
        },
        {
          "id": 21,
          "value": 0.0
        },
        {
          "id": 22,
          "value": 0.0
        },
        {
          "id": 23,
          "value": 0.0
        },
        {
          "id": 24,
          "value": 0.0
        },
        {
          "id": 25,
          "value": 0.0
        },
        {
          "id": 26,
          "value": 0.0
        },
        {
          "id": 27,
          "value": 0.0
        }
      ],
      "rightModuleId": 75,
      "data": {
        "model": 0
      },
      "pos": [
        50,
        0
      ]
    },
    {
      "id": 52,
      "plugin": "Fundamental",
      "version": "1.4.0",
      "model": "VCO",
      "params": [
        {
          "id": 0,
          "value": 1.0
        },
        {
          "id": 1,
          "value": 0.0
        },
        {
          "id": 2,
          "value": -46.3859978
        },
        {
          "id": 3,
          "value": -0.0129999835
        },
        {
          "id": 4,
          "value": 0.504000306
        },
        {
          "id": 5,
          "value": 0.498039991
        },
        {
          "id": 6,
          "value": 0.51000011
        }
      ],
      "leftModuleId": 70,
      "rightModuleId": 61,
      "pos": [
        16,
        1
      ]
    },
    {
      "id": 69,
      "plugin": "Fundamental",
      "version": "1.4.0",
      "model": "LFO2",
      "params": [
        {
          "id": 0,
          "value": 0.0
        },
        {
          "id": 1,
          "value": 0.0
        },
        {
          "id": 2,
          "value": -8.0
        },
        {
          "id": 3,
          "value": 0.0
        },
        {
          "id": 4,
          "value": 0.0
        }
      ],
      "rightModuleId": 70,
      "pos": [
        0,
        1
      ]
    },
    {
      "id": 70,
      "plugin": "Fundamental",
      "version": "1.4.0",
      "model": "LFO",
      "params": [
        {
          "id": 0,
          "value": 0.0
        },
        {
          "id": 1,
          "value": 1.0
        },
        {
          "id": 2,
          "value": -7.02800035
        },
        {
          "id": 3,
          "value": 0.505500376
        },
        {
          "id": 4,
          "value": 0.504000068
        },
        {
          "id": 5,
          "value": 0.493139297
        },
        {
          "id": 6,
          "value": 0.495000213
        }
      ],
      "leftModuleId": 69,
      "rightModuleId": 52,
      "pos": [
        6,
        1
      ]
    },
    {
      "id": 73,
      "plugin": "Fundamental",
      "version": "1.4.0",
      "model": "Scope",
      "params": [
        {
          "id": 0,
          "value": 0.0
        },
        {
          "id": 1,
          "value": 0.0
        },
        {
          "id": 2,
          "value": 0.0
        },
        {
          "id": 3,
          "value": 0.0
        },
        {
          "id": 4,
          "value": 14.0
        },
        {
          "id": 5,
          "value": 0.0
        },
        {
          "id": 6,
          "value": 0.0
        },
        {
          "id": 7,
          "value": 0.0
        }
      ],
      "data": {
        "lissajous": 0,
        "external": 0
      },
      "pos": [
        110,
        2
      ]
    },
    {
      "id": 75,
      "plugin": "Befaco",
      "version": "1.0.0",
      "model": "SpringReverb",
      "params": [
        {
          "id": 0,
          "value": 0.634499788
        },
        {
          "id": 1,
          "value": 1.0
        },
        {
          "id": 2,
          "value": 1.0
        },
        {
          "id": 3,
          "value": 0.5
        }
      ],
      "leftModuleId": 62,
      "pos": [
        84,
        0
      ]
    },
    {
      "id": 48,
      "plugin": "Fundamental",
      "version": "1.4.0",
      "model": "VCMixer",
      "params": [
        {
          "id": 0,
          "value": 0.779999852
        },
        {
          "id": 1,
          "value": 0.688722193
        },
        {
          "id": 2,
          "value": 1.41421354
        },
        {
          "id": 3,
          "value": 0.871154845
        },
        {
          "id": 4,
          "value": 0.98429215
        }
      ],
      "leftModuleId": 72,
      "pos": [
        92,
        2
      ]
    },
    {
      "id": 94,
      "plugin": "AudibleInstruments",
      "version": "1.0.0",
      "model": "Rings",
      "params": [
        {
          "id": 0,
          "value": 0.0
        },
        {
          "id": 1,
          "value": 0.0
        },
        {
          "id": 2,
          "value": 22.8600082
        },
        {
          "id": 3,
          "value": 0.346500397
        },
        {
          "id": 4,
          "value": 0.276999891
        },
        {
          "id": 5,
          "value": 0.629500031
        },
        {
          "id": 6,
          "value": 0.0
        },
        {
          "id": 7,
          "value": 0.0719998777
        },
        {
          "id": 8,
          "value": 0.0779998302
        },
        {
          "id": 9,
          "value": -0.13500008
        },
        {
          "id": 10,
          "value": 0.0259999894
        },
        {
          "id": 11,
          "value": -0.147
        }
      ],
      "rightModuleId": 74,
      "data": {
        "polyphony": 0,
        "model": 0,
        "easterEgg": false
      },
      "pos": [
        16,
        3
      ]
    },
    {
      "id": 96,
      "plugin": "AudibleInstruments",
      "version": "1.0.0",
      "model": "Rings",
      "params": [
        {
          "id": 0,
          "value": 0.0
        },
        {
          "id": 1,
          "value": 0.0
        },
        {
          "id": 2,
          "value": 12.9599981
        },
        {
          "id": 3,
          "value": 0.325500339
        },
        {
          "id": 4,
          "value": 0.299500108
        },
        {
          "id": 5,
          "value": 0.726999938
        },
        {
          "id": 6,
          "value": 1.0
        },
        {
          "id": 7,
          "value": 0.0719998777
        },
        {
          "id": 8,
          "value": 0.0779998302
        },
        {
          "id": 9,
          "value": -0.13500008
        },
        {
          "id": 10,
          "value": 0.0259999894
        },
        {
          "id": 11,
          "value": -0.147
        }
      ],
      "leftModuleId": 74,
      "rightModuleId": 100,
      "data": {
        "polyphony": 0,
        "model": 0,
        "easterEgg": false
      },
      "pos": [
        44,
        3
      ]
    },
    {
      "id": 72,
      "plugin": "AudibleInstruments",
      "version": "1.0.0",
      "model": "Elements",
      "params": [
        {
          "id": 0,
          "value": 1.0
        },
        {
          "id": 1,
          "value": 0.0
        },
        {
          "id": 2,
          "value": 0.0
        },
        {
          "id": 3,
          "value": 0.491000086
        },
        {
          "id": 4,
          "value": -10.0200005
        },
        {
          "id": 5,
          "value": -0.0419999771
        },
        {
          "id": 6,
          "value": 0.0
        },
        {
          "id": 7,
          "value": 0.490000039
        },
        {
          "id": 8,
          "value": 0.474999964
        },
        {
          "id": 9,
          "value": 0.338500112
        },
        {
          "id": 10,
          "value": 0.579000056
        },
        {
          "id": 11,
          "value": 0.498000056
        },
        {
          "id": 12,
          "value": 0.5
        },
        {
          "id": 13,
          "value": 0.5
        },
        {
          "id": 14,
          "value": 0.0
        },
        {
          "id": 15,
          "value": 0.50850004
        },
        {
          "id": 16,
          "value": 0.926999927
        },
        {
          "id": 17,
          "value": 0.0
        },
        {
          "id": 18,
          "value": 0.0
        },
        {
          "id": 19,
          "value": 0.0
        },
        {
          "id": 20,
          "value": -0.637000024
        },
        {
          "id": 21,
          "value": 0.0
        },
        {
          "id": 22,
          "value": -0.0539999604
        },
        {
          "id": 23,
          "value": 0.0
        },
        {
          "id": 24,
          "value": 0.0
        },
        {
          "id": 25,
          "value": 0.0
        },
        {
          "id": 26,
          "value": 0.0
        },
        {
          "id": 27,
          "value": 0.0
        }
      ],
      "rightModuleId": 48,
      "data": {
        "model": 0
      },
      "pos": [
        58,
        2
      ]
    },
    {
      "id": 98,
      "plugin": "Fundamental",
      "version": "1.4.0",
      "model": "VCMixer",
      "params": [
        {
          "id": 0,
          "value": 0.596999466
        },
        {
          "id": 1,
          "value": 1.22753656
        },
        {
          "id": 2,
          "value": 1.04510391
        },
        {
          "id": 3,
          "value": 1.26572084
        },
        {
          "id": 4,
          "value": 1.03237605
        }
      ],
      "leftModuleId": 99,
      "pos": [
        82,
        3
      ]
    },
    {
      "id": 99,
      "plugin": "Fundamental",
      "version": "1.4.0",
      "model": "VCMixer",
      "params": [
        {
          "id": 0,
          "value": 1.39199972
        },
        {
          "id": 1,
          "value": 0.84994185
        },
        {
          "id": 2,
          "value": 0.680236876
        },
        {
          "id": 3,
          "value": 0.871155024
        },
        {
          "id": 4,
          "value": 0.683064342
        }
      ],
      "leftModuleId": 100,
      "rightModuleId": 98,
      "pos": [
        72,
        3
      ]
    },
    {
      "id": 100,
      "plugin": "AudibleInstruments",
      "version": "1.0.0",
      "model": "Rings",
      "params": [
        {
          "id": 0,
          "value": 0.0
        },
        {
          "id": 1,
          "value": 0.0
        },
        {
          "id": 2,
          "value": 15.3900013
        },
        {
          "id": 3,
          "value": 0.373500317
        },
        {
          "id": 4,
          "value": 0.300000072
        },
        {
          "id": 5,
          "value": 0.692499995
        },
        {
          "id": 6,
          "value": 1.0
        },
        {
          "id": 7,
          "value": 0.0719998777
        },
        {
          "id": 8,
          "value": 0.0779998302
        },
        {
          "id": 9,
          "value": -0.13500008
        },
        {
          "id": 10,
          "value": 0.0259999894
        },
        {
          "id": 11,
          "value": -0.147
        }
      ],
      "leftModuleId": 96,
      "rightModuleId": 99,
      "data": {
        "polyphony": 0,
        "model": 0,
        "easterEgg": false
      },
      "pos": [
        58,
        3
      ]
    },
    {
      "id": 74,
      "plugin": "AudibleInstruments",
      "version": "1.0.0",
      "model": "Rings",
      "params": [
        {
          "id": 0,
          "value": 0.0
        },
        {
          "id": 1,
          "value": 0.0
        },
        {
          "id": 2,
          "value": 19.7100048
        },
        {
          "id": 3,
          "value": 0.291000277
        },
        {
          "id": 4,
          "value": 0.293499976
        },
        {
          "id": 5,
          "value": 0.692499936
        },
        {
          "id": 6,
          "value": 0.0
        },
        {
          "id": 7,
          "value": 0.0719998777
        },
        {
          "id": 8,
          "value": 0.0779998302
        },
        {
          "id": 9,
          "value": -0.13500008
        },
        {
          "id": 10,
          "value": 0.0259999894
        },
        {
          "id": 11,
          "value": -0.147
        }
      ],
      "leftModuleId": 94,
      "rightModuleId": 96,
      "data": {
        "polyphony": 0,
        "model": 0,
        "easterEgg": false
      },
      "pos": [
        30,
        3
      ]
    },
    {
      "id": 104,
      "plugin": "VCV-Recorder",
      "version": "1.0.1",
      "model": "Recorder",
      "params": [
        {
          "id": 0,
          "value": 0.987000585
        },
        {
          "id": 1,
          "value": 0.0
        }
      ],
      "rightModuleId": 47,
      "data": {
        "format": "wav",
        "path": "C:\\Users\\Zhouyang Lu\\Desktop/recording.wav",
        "incrementPath": false,
        "sampleRate": 44100,
        "depth": 16,
        "bitRate": 320000
      },
      "pos": [
        108,
        1
      ]
    }
  ],
  "cables": [
    {
      "id": 489,
      "outputModuleId": 61,
      "outputId": 1,
      "inputModuleId": 60,
      "inputId": 0,
      "color": "#c91847"
    },
    {
      "id": 547,
      "outputModuleId": 70,
      "outputId": 2,
      "inputModuleId": 52,
      "inputId": 0,
      "color": "#c9b70e"
    },
    {
      "id": 567,
      "outputModuleId": 70,
      "outputId": 0,
      "inputModuleId": 60,
      "inputId": 1,
      "color": "#0c8e15"
    },
    {
      "id": 503,
      "outputModuleId": 62,
      "outputId": 1,
      "inputModuleId": 75,
      "inputId": 2,
      "color": "#0c8e15"
    },
    {
      "id": 504,
      "outputModuleId": 62,
      "outputId": 0,
      "inputModuleId": 75,
      "inputId": 3,
      "color": "#c91847"
    },
    {
      "id": 601,
      "outputModuleId": 75,
      "outputId": 0,
      "inputModuleId": 49,
      "inputId": 4,
      "color": "#c9b70e"
    },
    {
      "id": 606,
      "outputModuleId": 75,
      "outputId": 1,
      "inputModuleId": 75,
      "inputId": 1,
      "color": "#0c8e15"
    },
    {
      "id": 607,
      "outputModuleId": 70,
      "outputId": 3,
      "inputModuleId": 62,
      "inputId": 2,
      "color": "#c91847"
    },
    {
      "id": 481,
      "outputModuleId": 59,
      "outputId": 1,
      "inputModuleId": 49,
      "inputId": 3,
      "color": "#c91847"
    },
    {
      "id": 480,
      "outputModuleId": 59,
      "outputId": 0,
      "inputModuleId": 48,
      "inputId": 3,
      "color": "#0c8e15"
    },
    {
      "id": 602,
      "outputModuleId": 75,
      "outputId": 0,
      "inputModuleId": 48,
      "inputId": 4,
      "color": "#0c8e15"
    },
    {
      "id": 588,
      "outputModuleId": 60,
      "outputId": 0,
      "inputModuleId": 72,
      "inputId": 9,
      "color": "#0c8e15"
    },
    {
      "id": 538,
      "outputModuleId": 60,
      "outputId": 3,
      "inputModuleId": 72,
      "inputId": 2,
      "color": "#0986ad"
    },
    {
      "id": 580,
      "outputModuleId": 72,
      "outputId": 1,
      "inputModuleId": 48,
      "inputId": 2,
      "color": "#0c8e15"
    },
    {
      "id": 540,
      "outputModuleId": 72,
      "outputId": 0,
      "inputModuleId": 49,
      "inputId": 2,
      "color": "#0c8e15"
    },
    {
      "id": 684,
      "outputModuleId": 60,
      "outputId": 2,
      "inputModuleId": 94,
      "inputId": 5,
      "color": "#0c8e15"
    },
    {
      "id": 719,
      "outputModuleId": 49,
      "outputId": 0,
      "inputModuleId": 73,
      "inputId": 0,
      "color": "#c91847"
    },
    {
      "id": 720,
      "outputModuleId": 48,
      "outputId": 0,
      "inputModuleId": 73,
      "inputId": 1,
      "color": "#0986ad"
    },
    {
      "id": 743,
      "outputModuleId": 60,
      "outputId": 2,
      "inputModuleId": 74,
      "inputId": 5,
      "color": "#0986ad"
    },
    {
      "id": 703,
      "outputModuleId": 74,
      "outputId": 0,
      "inputModuleId": 98,
      "inputId": 2,
      "color": "#0c8e15"
    },
    {
      "id": 702,
      "outputModuleId": 94,
      "outputId": 0,
      "inputModuleId": 98,
      "inputId": 1,
      "color": "#c9b70e"
    },
    {
      "id": 713,
      "outputModuleId": 100,
      "outputId": 1,
      "inputModuleId": 99,
      "inputId": 1,
      "color": "#0986ad"
    },
    {
      "id": 712,
      "outputModuleId": 96,
      "outputId": 1,
      "inputModuleId": 99,
      "inputId": 2,
      "color": "#c91847"
    },
    {
      "id": 710,
      "outputModuleId": 94,
      "outputId": 1,
      "inputModuleId": 99,
      "inputId": 4,
      "color": "#c9b70e"
    },
    {
      "id": 711,
      "outputModuleId": 74,
      "outputId": 1,
      "inputModuleId": 99,
      "inputId": 3,
      "color": "#0c8e15"
    },
    {
      "id": 705,
      "outputModuleId": 100,
      "outputId": 0,
      "inputModuleId": 98,
      "inputId": 4,
      "color": "#0986ad"
    },
    {
      "id": 704,
      "outputModuleId": 96,
      "outputId": 0,
      "inputModuleId": 98,
      "inputId": 3,
      "color": "#c91847"
    },
    {
      "id": 756,
      "outputModuleId": 58,
      "outputId": 3,
      "inputModuleId": 59,
      "inputId": 7,
      "color": "#c91847"
    },
    {
      "id": 745,
      "outputModuleId": 60,
      "outputId": 2,
      "inputModuleId": 100,
      "inputId": 5,
      "color": "#0c8e15"
    },
    {
      "id": 744,
      "outputModuleId": 60,
      "outputId": 2,
      "inputModuleId": 96,
      "inputId": 5,
      "color": "#c9b70e"
    },
    {
      "id": 759,
      "outputModuleId": 60,
      "outputId": 2,
      "inputModuleId": 58,
      "inputId": 7,
      "color": "#0c8e15"
    },
    {
      "id": 747,
      "outputModuleId": 49,
      "outputId": 0,
      "inputModuleId": 47,
      "inputId": 0,
      "color": "#0986ad"
    },
    {
      "id": 754,
      "outputModuleId": 99,
      "outputId": 0,
      "inputModuleId": 48,
      "inputId": 1,
      "color": "#c9b70e"
    },
    {
      "id": 753,
      "outputModuleId": 98,
      "outputId": 0,
      "inputModuleId": 49,
      "inputId": 1,
      "color": "#0986ad"
    },
    {
      "id": 748,
      "outputModuleId": 48,
      "outputId": 0,
      "inputModuleId": 47,
      "inputId": 1,
      "color": "#c9b70e"
    },
    {
      "id": 766,
      "outputModuleId": 49,
      "outputId": 0,
      "inputModuleId": 104,
      "inputId": 3,
      "color": "#0c8e15"
    },
    {
      "id": 767,
      "outputModuleId": 48,
      "outputId": 0,
      "inputModuleId": 104,
      "inputId": 2,
      "color": "#c91847"
    },
    {
      "id": 770,
      "outputModuleId": 52,
      "outputId": 2,
      "inputModuleId": 61,
      "inputId": 6,
      "color": "#c9b70e"
    }
  ]
}