{
  "version": "1.1.6",
  "modules": [
    {
      "id": 47,
      "plugin": "Core",
      "version": "1.1.6",
      "model": "AudioInterface",
      "params": [],
      "leftModuleId": 106,
      "rightModuleId": 104,
      "data": {
        "audio": {
          "driver": 5,
          "deviceName": "Burr-Brown from TI              : USB Audio CODEC ",
          "offset": 0,
          "maxChannels": 8,
          "sampleRate": 44100,
          "blockSize": 2048
        }
      },
      "pos": [
        92,
        0
      ]
    },
    {
      "id": 52,
      "plugin": "Fundamental",
      "version": "1.4.0",
      "model": "VCO",
      "params": [
        {
          "id": 0,
          "value": 1.0
        },
        {
          "id": 1,
          "value": 0.0
        },
        {
          "id": 2,
          "value": -38.1240196
        },
        {
          "id": 3,
          "value": -0.0129999835
        },
        {
          "id": 4,
          "value": 0.142500296
        },
        {
          "id": 5,
          "value": 0.498039991
        },
        {
          "id": 6,
          "value": 0.51000011
        }
      ],
      "leftModuleId": 70,
      "rightModuleId": 107,
      "pos": [
        19,
        0
      ]
    },
    {
      "id": 70,
      "plugin": "Fundamental",
      "version": "1.4.0",
      "model": "LFO",
      "params": [
        {
          "id": 0,
          "value": 0.0
        },
        {
          "id": 1,
          "value": 1.0
        },
        {
          "id": 2,
          "value": 7.98398829
        },
        {
          "id": 3,
          "value": 0.253500015
        },
        {
          "id": 4,
          "value": 0.504000068
        },
        {
          "id": 5,
          "value": 0.5
        },
        {
          "id": 6,
          "value": 0.62400043
        }
      ],
      "leftModuleId": 113,
      "rightModuleId": 52,
      "pos": [
        9,
        0
      ]
    },
    {
      "id": 104,
      "plugin": "VCV-Recorder",
      "version": "1.0.1",
      "model": "Recorder",
      "params": [
        {
          "id": 0,
          "value": 0.987000585
        },
        {
          "id": 1,
          "value": 0.0
        }
      ],
      "leftModuleId": 47,
      "data": {
        "format": "wav",
        "path": "/Users/JacobDotCram/Dropbox/Grad-School/YorkU/VSL/gitshow10/recording.wav",
        "incrementPath": false,
        "sampleRate": 44100,
        "depth": 16,
        "bitRate": 320000
      },
      "pos": [
        102,
        0
      ]
    },
    {
      "id": 106,
      "plugin": "squinkylabs-plug1",
      "version": "1.0.5",
      "model": "squinkylabs-mix8",
      "params": [
        {
          "id": 0,
          "value": 1.0
        },
        {
          "id": 1,
          "value": 0.0
        },
        {
          "id": 2,
          "value": 0.219499916
        },
        {
          "id": 3,
          "value": 0.2245
        },
        {
          "id": 4,
          "value": 0.754000008
        },
        {
          "id": 5,
          "value": 0.717999756
        },
        {
          "id": 6,
          "value": 0.800000012
        },
        {
          "id": 7,
          "value": 0.800000012
        },
        {
          "id": 8,
          "value": 0.800000012
        },
        {
          "id": 9,
          "value": 0.800000012
        },
        {
          "id": 10,
          "value": -1.0
        },
        {
          "id": 11,
          "value": 1.0
        },
        {
          "id": 12,
          "value": -1.0
        },
        {
          "id": 13,
          "value": 1.0
        },
        {
          "id": 14,
          "value": 0.0
        },
        {
          "id": 15,
          "value": 0.0
        },
        {
          "id": 16,
          "value": 0.0
        },
        {
          "id": 17,
          "value": 0.0
        },
        {
          "id": 18,
          "value": 0.0
        },
        {
          "id": 19,
          "value": 0.0
        },
        {
          "id": 20,
          "value": 1.0
        },
        {
          "id": 21,
          "value": 1.0
        },
        {
          "id": 22,
          "value": 0.0
        },
        {
          "id": 23,
          "value": 0.0
        },
        {
          "id": 24,
          "value": 0.0
        },
        {
          "id": 25,
          "value": 0.0
        },
        {
          "id": 26,
          "value": 0.0
        },
        {
          "id": 27,
          "value": 0.0
        },
        {
          "id": 28,
          "value": 0.0
        },
        {
          "id": 29,
          "value": 0.0
        },
        {
          "id": 30,
          "value": 0.0
        },
        {
          "id": 31,
          "value": 0.0
        },
        {
          "id": 32,
          "value": 0.0
        },
        {
          "id": 33,
          "value": 0.0
        },
        {
          "id": 34,
          "value": 0.0
        },
        {
          "id": 35,
          "value": 0.0
        },
        {
          "id": 36,
          "value": 0.0
        },
        {
          "id": 37,
          "value": 0.0
        },
        {
          "id": 38,
          "value": 0.0
        },
        {
          "id": 39,
          "value": 0.0
        },
        {
          "id": 40,
          "value": 0.0
        },
        {
          "id": 41,
          "value": 0.0
        },
        {
          "id": 42,
          "value": 0.0
        }
      ],
      "leftModuleId": 108,
      "rightModuleId": 47,
      "pos": [
        66,
        0
      ]
    },
    {
      "id": 108,
      "plugin": "AudibleInstruments",
      "version": "1.0.0",
      "model": "Veils",
      "params": [
        {
          "id": 0,
          "value": 0.890500009
        },
        {
          "id": 1,
          "value": 0.0
        },
        {
          "id": 2,
          "value": 0.385000288
        },
        {
          "id": 3,
          "value": 0.351999551
        },
        {
          "id": 4,
          "value": 1.0
        },
        {
          "id": 5,
          "value": 1.0
        },
        {
          "id": 6,
          "value": 1.0
        },
        {
          "id": 7,
          "value": 1.0
        }
      ],
      "leftModuleId": 122,
      "rightModuleId": 106,
      "pos": [
        54,
        0
      ]
    },
    {
      "id": 113,
      "plugin": "DrumKit",
      "version": "1.1.3",
      "model": "Gnome",
      "params": [
        {
          "id": 0,
          "value": 139.73494
        },
        {
          "id": 1,
          "value": 0.349999994
        },
        {
          "id": 2,
          "value": 0.0
        },
        {
          "id": 3,
          "value": 0.0
        }
      ],
      "rightModuleId": 70,
      "data": {
        "running": true
      },
      "pos": [
        0,
        0
      ]
    },
    {
      "id": 107,
      "plugin": "AudibleInstruments",
      "version": "1.0.0",
      "model": "Stages",
      "params": [
        {
          "id": 0,
          "value": 0.5
        },
        {
          "id": 1,
          "value": 0.5
        },
        {
          "id": 2,
          "value": 0.5
        },
        {
          "id": 3,
          "value": 0.5
        },
        {
          "id": 4,
          "value": 0.5
        },
        {
          "id": 5,
          "value": 0.5
        },
        {
          "id": 6,
          "value": 0.0
        },
        {
          "id": 7,
          "value": 0.0
        },
        {
          "id": 8,
          "value": 0.0
        },
        {
          "id": 9,
          "value": 0.0
        },
        {
          "id": 10,
          "value": 0.0
        },
        {
          "id": 11,
          "value": 0.0
        },
        {
          "id": 12,
          "value": 0.180000454
        },
        {
          "id": 13,
          "value": 0.458999932
        },
        {
          "id": 14,
          "value": 0.0
        },
        {
          "id": 15,
          "value": 0.438000053
        },
        {
          "id": 16,
          "value": 0.0
        },
        {
          "id": 17,
          "value": 0.443999946
        }
      ],
      "leftModuleId": 52,
      "rightModuleId": 115,
      "data": {
        "configurations": [
          {
            "type": 0,
            "loop": false
          },
          {
            "type": 0,
            "loop": false
          },
          {
            "type": 0,
            "loop": true
          },
          {
            "type": 0,
            "loop": false
          },
          {
            "type": 0,
            "loop": true
          },
          {
            "type": 0,
            "loop": false
          }
        ]
      },
      "pos": [
        29,
        0
      ]
    },
    {
      "id": 114,
      "plugin": "Fundamental",
      "version": "1.4.0",
      "model": "SEQ3",
      "params": [
        {
          "id": 0,
          "value": 2.0
        },
        {
          "id": 1,
          "value": 0.0
        },
        {
          "id": 2,
          "value": 0.0
        },
        {
          "id": 3,
          "value": 8.0
        },
        {
          "id": 4,
          "value": 3.19499826
        },
        {
          "id": 5,
          "value": 2.23499846
        },
        {
          "id": 6,
          "value": 0.0
        },
        {
          "id": 7,
          "value": 0.0
        },
        {
          "id": 8,
          "value": 0.0
        },
        {
          "id": 9,
          "value": 0.0
        },
        {
          "id": 10,
          "value": 0.0
        },
        {
          "id": 11,
          "value": 0.0
        },
        {
          "id": 12,
          "value": 1.36499953
        },
        {
          "id": 13,
          "value": 0.0
        },
        {
          "id": 14,
          "value": 0.0
        },
        {
          "id": 15,
          "value": 2.29500079
        },
        {
          "id": 16,
          "value": 4.87499857
        },
        {
          "id": 17,
          "value": 1.07999957
        },
        {
          "id": 18,
          "value": 0.0
        },
        {
          "id": 19,
          "value": 0.0
        },
        {
          "id": 20,
          "value": 0.0
        },
        {
          "id": 21,
          "value": 8.1750021
        },
        {
          "id": 22,
          "value": 4.26000261
        },
        {
          "id": 23,
          "value": 2.4450016
        },
        {
          "id": 24,
          "value": 3.36000276
        },
        {
          "id": 25,
          "value": 1.01999986
        },
        {
          "id": 26,
          "value": 0.0
        },
        {
          "id": 27,
          "value": 0.0
        },
        {
          "id": 28,
          "value": 0.0
        },
        {
          "id": 29,
          "value": 0.0
        },
        {
          "id": 30,
          "value": 0.0
        },
        {
          "id": 31,
          "value": 0.0
        },
        {
          "id": 32,
          "value": 0.0
        },
        {
          "id": 33,
          "value": 0.0
        },
        {
          "id": 34,
          "value": 0.0
        },
        {
          "id": 35,
          "value": 0.0
        }
      ],
      "leftModuleId": 126,
      "rightModuleId": 125,
      "data": {
        "running": true,
        "gates": [
          1,
          1,
          1,
          1,
          1,
          1,
          1,
          1
        ]
      },
      "pos": [
        17,
        1
      ]
    },
    {
      "id": 115,
      "plugin": "Fundamental",
      "version": "1.4.0",
      "model": "Quantizer",
      "params": [],
      "leftModuleId": 107,
      "rightModuleId": 122,
      "data": {
        "enabledNotes": [
          true,
          false,
          true,
          false,
          false,
          true,
          true,
          false,
          false,
          true,
          false,
          true
        ]
      },
      "pos": [
        43,
        0
      ]
    },
    {
      "id": 122,
      "plugin": "Fundamental",
      "version": "1.4.0",
      "model": "VCF",
      "params": [
        {
          "id": 0,
          "value": 0.846000075
        },
        {
          "id": 1,
          "value": 0.5
        },
        {
          "id": 2,
          "value": 0.679500222
        },
        {
          "id": 3,
          "value": 0.513000131
        },
        {
          "id": 4,
          "value": 1.0
        }
      ],
      "leftModuleId": 115,
      "rightModuleId": 108,
      "pos": [
        46,
        0
      ]
    },
    {
      "id": 123,
      "plugin": "Fundamental",
      "version": "1.4.0",
      "model": "Delay",
      "params": [
        {
          "id": 0,
          "value": 0.882500291
        },
        {
          "id": 1,
          "value": 0.537
        },
        {
          "id": 2,
          "value": 1.0
        },
        {
          "id": 3,
          "value": 1.0
        }
      ],
      "leftModuleId": 125,
      "rightModuleId": 124,
      "pos": [
        47,
        1
      ]
    },
    {
      "id": 124,
      "plugin": "Fundamental",
      "version": "1.4.0",
      "model": "Delay",
      "params": [
        {
          "id": 0,
          "value": 0.726499677
        },
        {
          "id": 1,
          "value": 0.403500021
        },
        {
          "id": 2,
          "value": 0.613499939
        },
        {
          "id": 3,
          "value": 1.0
        }
      ],
      "leftModuleId": 123,
      "pos": [
        55,
        1
      ]
    },
    {
      "id": 125,
      "plugin": "Fundamental",
      "version": "1.4.0",
      "model": "8vert",
      "params": [
        {
          "id": 0,
          "value": 0.0
        },
        {
          "id": 1,
          "value": 0.0
        },
        {
          "id": 2,
          "value": 0.0
        },
        {
          "id": 3,
          "value": 0.0
        },
        {
          "id": 4,
          "value": 0.0
        },
        {
          "id": 5,
          "value": 0.0
        },
        {
          "id": 6,
          "value": 0.0
        },
        {
          "id": 7,
          "value": 0.0
        }
      ],
      "leftModuleId": 114,
      "rightModuleId": 123,
      "pos": [
        39,
        1
      ]
    },
    {
      "id": 126,
      "plugin": "AudibleInstruments",
      "version": "1.0.0",
      "model": "Kinks",
      "params": [],
      "leftModuleId": 127,
      "rightModuleId": 114,
      "pos": [
        13,
        1
      ]
    },
    {
      "id": 127,
      "plugin": "AudibleInstruments",
      "version": "1.0.0",
      "model": "Links",
      "params": [],
      "leftModuleId": 132,
      "rightModuleId": 126,
      "pos": [
        9,
        1
      ]
    },
    {
      "id": 132,
      "plugin": "Fundamental",
      "version": "1.4.0",
      "model": "LFO2",
      "params": [
        {
          "id": 0,
          "value": 0.0
        },
        {
          "id": 1,
          "value": 1.0
        },
        {
          "id": 2,
          "value": 1.94499433
        },
        {
          "id": 3,
          "value": 3.0
        },
        {
          "id": 4,
          "value": 0.5
        }
      ],
      "rightModuleId": 127,
      "pos": [
        3,
        1
      ]
    }
  ],
  "cables": [
    {
      "id": 547,
      "outputModuleId": 70,
      "outputId": 3,
      "inputModuleId": 52,
      "inputId": 1,
      "color": "#c9b70e"
    },
    {
      "id": 781,
      "outputModuleId": 108,
      "outputId": 0,
      "inputModuleId": 106,
      "inputId": 0,
      "color": "#0c8e15"
    },
    {
      "id": 782,
      "outputModuleId": 113,
      "outputId": 3,
      "inputModuleId": 107,
      "inputId": 6,
      "color": "#c91847"
    },
    {
      "id": 787,
      "outputModuleId": 114,
      "outputId": 3,
      "inputModuleId": 70,
      "inputId": 3,
      "color": "#c91847"
    },
    {
      "id": 784,
      "outputModuleId": 113,
      "outputId": 2,
      "inputModuleId": 114,
      "inputId": 1,
      "color": "#0986ad"
    },
    {
      "id": 773,
      "outputModuleId": 52,
      "outputId": 2,
      "inputModuleId": 115,
      "inputId": 0,
      "color": "#c91847"
    },
    {
      "id": 799,
      "outputModuleId": 108,
      "outputId": 3,
      "inputModuleId": 106,
      "inputId": 3,
      "color": "#0986ad"
    },
    {
      "id": 798,
      "outputModuleId": 108,
      "outputId": 2,
      "inputModuleId": 106,
      "inputId": 2,
      "color": "#c91847"
    },
    {
      "id": 805,
      "outputModuleId": 108,
      "outputId": 0,
      "inputModuleId": 106,
      "inputId": 1,
      "color": "#0c8e15"
    },
    {
      "id": 808,
      "outputModuleId": 114,
      "outputId": 4,
      "inputModuleId": 107,
      "inputId": 8,
      "color": "#c9b70e"
    },
    {
      "id": 809,
      "outputModuleId": 114,
      "outputId": 5,
      "inputModuleId": 107,
      "inputId": 10,
      "color": "#0c8e15"
    },
    {
      "id": 810,
      "outputModuleId": 107,
      "outputId": 2,
      "inputModuleId": 106,
      "inputId": 24,
      "color": "#c91847"
    },
    {
      "id": 774,
      "outputModuleId": 107,
      "outputId": 0,
      "inputModuleId": 108,
      "inputId": 4,
      "color": "#0986ad"
    },
    {
      "id": 811,
      "outputModuleId": 107,
      "outputId": 4,
      "inputModuleId": 106,
      "inputId": 25,
      "color": "#0986ad"
    },
    {
      "id": 789,
      "outputModuleId": 115,
      "outputId": 0,
      "inputModuleId": 122,
      "inputId": 3,
      "color": "#0c8e15"
    },
    {
      "id": 820,
      "outputModuleId": 122,
      "outputId": 0,
      "inputModuleId": 108,
      "inputId": 0,
      "color": "#c9b70e"
    },
    {
      "id": 821,
      "outputModuleId": 114,
      "outputId": 1,
      "inputModuleId": 52,
      "inputId": 0,
      "color": "#0c8e15"
    },
    {
      "id": 823,
      "outputModuleId": 107,
      "outputId": 2,
      "inputModuleId": 122,
      "inputId": 0,
      "color": "#0986ad"
    },
    {
      "id": 825,
      "outputModuleId": 123,
      "outputId": 0,
      "inputModuleId": 108,
      "inputId": 2,
      "color": "#0c8e15"
    },
    {
      "id": 826,
      "outputModuleId": 124,
      "outputId": 0,
      "inputModuleId": 108,
      "inputId": 3,
      "color": "#0986ad"
    },
    {
      "id": 830,
      "outputModuleId": 106,
      "outputId": 0,
      "inputModuleId": 104,
      "inputId": 2,
      "color": "#0986ad"
    },
    {
      "id": 831,
      "outputModuleId": 106,
      "outputId": 1,
      "inputModuleId": 104,
      "inputId": 3,
      "color": "#c9b70e"
    },
    {
      "id": 838,
      "outputModuleId": 115,
      "outputId": 0,
      "inputModuleId": 123,
      "inputId": 4,
      "color": "#c9b70e"
    },
    {
      "id": 839,
      "outputModuleId": 115,
      "outputId": 0,
      "inputModuleId": 124,
      "inputId": 4,
      "color": "#0c8e15"
    },
    {
      "id": 840,
      "outputModuleId": 125,
      "outputId": 0,
      "inputModuleId": 123,
      "inputId": 0,
      "color": "#c91847"
    },
    {
      "id": 841,
      "outputModuleId": 125,
      "outputId": 1,
      "inputModuleId": 124,
      "inputId": 0,
      "color": "#0986ad"
    },
    {
      "id": 843,
      "outputModuleId": 114,
      "outputId": 0,
      "inputModuleId": 126,
      "inputId": 2,
      "color": "#c91847"
    },
    {
      "id": 845,
      "outputModuleId": 113,
      "outputId": 3,
      "inputModuleId": 126,
      "inputId": 1,
      "color": "#c9b70e"
    },
    {
      "id": 863,
      "outputModuleId": 106,
      "outputId": 0,
      "inputModuleId": 47,
      "inputId": 0,
      "color": "#0c8e15"
    },
    {
      "id": 864,
      "outputModuleId": 106,
      "outputId": 1,
      "inputModuleId": 47,
      "inputId": 1,
      "color": "#c91847"
    },
    {
      "id": 872,
      "outputModuleId": 132,
      "outputId": 0,
      "inputModuleId": 70,
      "inputId": 0,
      "color": "#0986ad"
    },
    {
      "id": 873,
      "outputModuleId": 132,
      "outputId": 0,
      "inputModuleId": 125,
      "inputId": 0,
      "color": "#c9b70e"
    },
    {
      "id": 874,
      "outputModuleId": 132,
      "outputId": 0,
      "inputModuleId": 125,
      "inputId": 1,
      "color": "#0c8e15"
    }
  ]
}