{
  "version": "1.1.6",
  "modules": [
    {
      "id": 1,
      "plugin": "Core",
      "version": "1.1.6",
      "model": "AudioInterface",
      "params": [],
      "leftModuleId": 35,
      "data": {
        "audio": {
          "driver": 6,
          "deviceName": "Speakers (Realtek(R) Audio)",
          "offset": 0,
          "maxChannels": 8,
          "sampleRate": 44100,
          "blockSize": 256
        }
      },
      "pos": [
        80,
        0
      ]
    },
    {
      "id": 2,
      "plugin": "Fundamental",
      "version": "1.4.0",
      "model": "VCMixer",
      "params": [
        {
          "id": 0,
          "value": 0.960000277
        },
        {
          "id": 1,
          "value": 1.0
        },
        {
          "id": 2,
          "value": 1.0
        },
        {
          "id": 3,
          "value": 1.0
        },
        {
          "id": 4,
          "value": 0.981464267
        }
      ],
      "leftModuleId": 44,
      "rightModuleId": 35,
      "pos": [
        60,
        0
      ]
    },
    {
      "id": 8,
      "plugin": "Core",
      "version": "1.1.6",
      "model": "Notes",
      "params": [],
      "leftModuleId": 37,
      "rightModuleId": 23,
      "text": "patch instructions:\n\n1. Choose an audio driver and device in the AUDIO-8 module.\n\n2. Drag knobs up/down. Hold Ctrl (Cmd on Mac) while dragging to fine-tune. Right-click knobs to edit, or double-click to initialize.\n\n3. Drag ports to create and move 3ables. Stack multiple cables on outputs by holding Ctrl (Cmd on Mac) and dragging from an output.\n\n4. Right-click on an empty rack space to add new modules.",
      "pos": [
        58,
        1
      ]
    },
    {
      "id": 17,
      "plugin": "VCV-Prototype",
      "version": "1.2.0",
      "model": "Prototype",
      "params": [
        {
          "id": 0,
          "value": 0.556500077
        },
        {
          "id": 1,
          "value": 0.558000088
        },
        {
          "id": 2,
          "value": 0.0
        },
        {
          "id": 3,
          "value": 0.0
        },
        {
          "id": 4,
          "value": 0.469500035
        },
        {
          "id": 5,
          "value": 0.0
        },
        {
          "id": 6,
          "value": 0.0
        },
        {
          "id": 7,
          "value": 0.0
        },
        {
          "id": 8,
          "value": 0.0
        },
        {
          "id": 9,
          "value": 0.0
        },
        {
          "id": 10,
          "value": 0.0
        },
        {
          "id": 11,
          "value": 0.0
        }
      ],
      "leftModuleId": 39,
      "data": {
        "path": "/Users/audiobeing/gitshow3/module3.js",
        "script": "// module3.js is a gate sequencer, which takes as its only input a signal. It compares the input \tsignal amplitude against 6 logical conditions, and sends a gate out of one of the 6 outputs. \n\n// Inputs: IN1\n// Outputs: OUT1, OUT2, OUT3, OUT4, OUT5, OUT6\n\n\nconfig.frameDivider = 1\nconfig.bufferSize = 16\n\nvar phase = 0\n\nfunction step(step){\n\tdisplay('output: ' + step)\n}\n\nfunction process(block) {\t\n\t// Set all samples in output buffer\n\tfor (var i = 0; i < block.bufferSize; i++) {\n\t\t// IN1: signal input value ranges 0-10, and is thus tested against the switch case below\n\t\tlet switcher = Math.floor(block.inputs[0][i])\n\t\tswitch (switcher){\n\t\t\t// output 0\n\t\t\tcase 0:\n\t\t\t\t\tstep(0)\n\t\t\t\t\tblock.outputs[0][i] = 20\n\t\t\t\t\tblock.outputs[1][i] = 10\n\t\t\t\t\tblock.outputs[2][i] = 0\n\t\t\t\t\tblock.outputs[3][i] = 1 \n\t\t\t\t\tblock.outputs[4][i] = 10\n\t\t\t\t\tblock.outputs[5][i] = 0\n\t\t\tbreak;\n\t\t\t// output 1\n\t\t\tcase 1:\n\t\t\tcase 2:\n\t\t\t\t\tstep(1)\n\t\t\t\t\tblock.outputs[0][i] = 0\n\t\t\t\t\tblock.outputs[1][i] = 10\n\t\t\t\t\tblock.outputs[2][i] = 0\n\t\t\t\t\tblock.outputs[3][i] = 0\n\t\t\t\t\tblock.outputs[4][i] = 0\n\t\t\t\t\tblock.outputs[5][i] = 0\n\t\t\tbreak;\n\n\t\t\t// output 2\n\t\t\tcase 3:\n\t\t\t\tstep(3)\n\t\t\t\tblock.outputs[0][i] = 10\n\t\t\t\tblock.outputs[5][i] = 10\n\t\t\tcase 4:\n\t\t\t\t\tstep(2)\n\t\t\t\t\tblock.outputs[0][i] = 0\n\t\t\t\t\tblock.outputs[1][i] = 0\n\t\t\t\t\tblock.outputs[2][i] = 10\n\t\t\t\t\tblock.outputs[3][i] = 0\n\t\t\t\t\tblock.outputs[4][i] = 0\n\t\t\t\t\tblock.outputs[5][i] = 0\n\t\t\tbreak;\n\t\t\t// output 3\t\t\t\n\t\t\tcase 5:\n\t\t\tcase 6:\n\t\t\t\tstep(3)\n\t\t\t\tblock.outputs[0][i] = 0\n\t\t\t\tblock.outputs[1][i] = 0\n\t\t\t\tblock.outputs[2][i] = 0\n\t\t\t\tblock.outputs[3][i] = 10\n\t\t\t\tblock.outputs[4][i] = 0\n\t\t\t\tblock.outputs[5][i] = 0\n\t\t\tbreak;\n\t\t\t// output 4\n\t\t\tcase 7:\n\t\t\tcase 8:\n\t\t\t\t\tstep(4)\n\t\t\t\t\tblock.outputs[0][i] = 0\n\t\t\t\t\tblock.outputs[1][i] = 10\n\t\t\t\t\tblock.outputs[2][i] = 0\n\t\t\t\t\tblock.outputs[3][i] = 0\n\t\t\t\t\tblock.outputs[4][i] = 10\n\t\t\t\t\tblock.outputs[5][i] = 0\n\t\t\tbreak;\n\t\t\t// output 5\n\t\t\tcase 9:\n\t\t\t\t\tstep(5)\n\t\t\t\t\tblock.outputs[0][i] = 0\n\t\t\t\t\tblock.outputs[1][i] = rand(11); \n\t\t\t\t\tblock.outputs[2][i] = 10\n\t\t\t\t\tblock.outputs[3][i] = 0\n\t\t\t\t\tblock.outputs[4][i] = 0\n\t\t\t\t\tblock.outputs[5][i] = rand(10)\n\t\t\tbreak;\t\t\t\t\n\t\t}\n\t} \n\t\n\n}\n\nfunction rand(n){\n\treturn Math.floor(Math.random(n)); \n}\n"
      },
      "pos": [
        16,
        0
      ]
    },
    {
      "id": 23,
      "plugin": "Core",
      "version": "1.1.6",
      "model": "Notes",
      "params": [],
      "leftModuleId": 8,
      "text": "recording! this little module simplifies things so we don't have to use jack+daw\n\nremember to save the recording to the git repo, but don't let it be larger than 20MB~",
      "pos": [
        74,
        1
      ]
    },
    {
      "id": 28,
      "plugin": "Fundamental",
      "version": "1.4.0",
      "model": "LFO",
      "params": [
        {
          "id": 0,
          "value": 0.0
        },
        {
          "id": 1,
          "value": 1.0
        },
        {
          "id": 2,
          "value": -8.0
        },
        {
          "id": 3,
          "value": 0.319500238
        },
        {
          "id": 4,
          "value": 0.546000242
        },
        {
          "id": 5,
          "value": 0.525969744
        },
        {
          "id": 6,
          "value": 0.635999978
        }
      ],
      "rightModuleId": 39,
      "pos": [
        0,
        0
      ]
    },
    {
      "id": 35,
      "plugin": "Fundamental",
      "version": "1.4.0",
      "model": "VCMixer",
      "params": [
        {
          "id": 0,
          "value": 0.891000748
        },
        {
          "id": 1,
          "value": 1.0
        },
        {
          "id": 2,
          "value": 1.0
        },
        {
          "id": 3,
          "value": 1.0
        },
        {
          "id": 4,
          "value": 1.0
        }
      ],
      "leftModuleId": 2,
      "rightModuleId": 1,
      "pos": [
        70,
        0
      ]
    },
    {
      "id": 36,
      "plugin": "AudibleInstruments",
      "version": "1.0.0",
      "model": "Rings",
      "params": [
        {
          "id": 0,
          "value": 0.0
        },
        {
          "id": 1,
          "value": 0.0
        },
        {
          "id": 2,
          "value": 18.2399693
        },
        {
          "id": 3,
          "value": 0.652000189
        },
        {
          "id": 4,
          "value": 0.459500283
        },
        {
          "id": 5,
          "value": 0.600999355
        },
        {
          "id": 6,
          "value": 0.44299981
        },
        {
          "id": 7,
          "value": 0.0390002355
        },
        {
          "id": 8,
          "value": 0.0120000206
        },
        {
          "id": 9,
          "value": -0.0329998806
        },
        {
          "id": 10,
          "value": -0.41599977
        },
        {
          "id": 11,
          "value": -0.0560000837
        }
      ],
      "rightModuleId": 37,
      "data": {
        "polyphony": 0,
        "model": 0,
        "easterEgg": false
      },
      "pos": [
        30,
        1
      ]
    },
    {
      "id": 37,
      "plugin": "AudibleInstruments",
      "version": "1.0.0",
      "model": "Rings",
      "params": [
        {
          "id": 0,
          "value": 0.0
        },
        {
          "id": 1,
          "value": 0.0
        },
        {
          "id": 2,
          "value": 59.9099998
        },
        {
          "id": 3,
          "value": 0.680499971
        },
        {
          "id": 4,
          "value": 0.383000433
        },
        {
          "id": 5,
          "value": 0.271000028
        },
        {
          "id": 6,
          "value": 0.255499721
        },
        {
          "id": 7,
          "value": 0.0
        },
        {
          "id": 8,
          "value": 0.0
        },
        {
          "id": 9,
          "value": -0.360000134
        },
        {
          "id": 10,
          "value": 0.011000026
        },
        {
          "id": 11,
          "value": 0.186000019
        }
      ],
      "leftModuleId": 36,
      "rightModuleId": 8,
      "data": {
        "polyphony": 2,
        "model": 0,
        "easterEgg": false
      },
      "pos": [
        44,
        1
      ]
    },
    {
      "id": 39,
      "plugin": "Fundamental",
      "version": "1.4.0",
      "model": "LFO2",
      "params": [
        {
          "id": 0,
          "value": 0.0
        },
        {
          "id": 1,
          "value": 0.0
        },
        {
          "id": 2,
          "value": -7.6760006
        },
        {
          "id": 3,
          "value": 1.8689996
        },
        {
          "id": 4,
          "value": 0.00300000003
        }
      ],
      "leftModuleId": 28,
      "rightModuleId": 17,
      "pos": [
        10,
        0
      ]
    },
    {
      "id": 44,
      "plugin": "VCV-Recorder",
      "version": "1.0.1",
      "model": "Recorder",
      "params": [
        {
          "id": 0,
          "value": 0.987000585
        },
        {
          "id": 1,
          "value": 0.0
        }
      ],
      "rightModuleId": 2,
      "data": {
        "format": "wav",
        "path": "D:\\Documents\\GitHub\\gitshow10/recording.wav",
        "incrementPath": false,
        "sampleRate": 44100,
        "depth": 16,
        "bitRate": 320000
      },
      "pos": [
        55,
        0
      ]
    },
    {
      "id": 38,
      "plugin": "Befaco",
      "version": "1.0.0",
      "model": "Rampage",
      "params": [
        {
          "id": 0,
          "value": 1.0
        },
        {
          "id": 1,
          "value": 1.0
        },
        {
          "id": 2,
          "value": -0.90899992
        },
        {
          "id": 3,
          "value": -0.244999766
        },
        {
          "id": 4,
          "value": 0.0
        },
        {
          "id": 5,
          "value": 0.0
        },
        {
          "id": 6,
          "value": 0.600000143
        },
        {
          "id": 7,
          "value": 0.910000265
        },
        {
          "id": 8,
          "value": 0.585000217
        },
        {
          "id": 9,
          "value": 0.0
        },
        {
          "id": 10,
          "value": 0.0
        },
        {
          "id": 11,
          "value": 1.0
        },
        {
          "id": 12,
          "value": 0.471999854
        }
      ],
      "pos": [
        34,
        0
      ]
    },
    {
      "id": 46,
      "plugin": "Fundamental",
      "version": "1.4.0",
      "model": "VCO",
      "params": [
        {
          "id": 0,
          "value": 1.0
        },
        {
          "id": 1,
          "value": 0.0
        },
        {
          "id": 2,
          "value": -54.0
        },
        {
          "id": 3,
          "value": 0.417000115
        },
        {
          "id": 4,
          "value": 0.379500061
        },
        {
          "id": 5,
          "value": 0.523029923
        },
        {
          "id": 6,
          "value": 0.426000029
        }
      ],
      "pos": [
        0,
        1
      ]
    }
  ],
  "cables": [
    {
      "id": 349,
      "outputModuleId": 2,
      "outputId": 0,
      "inputModuleId": 1,
      "inputId": 0,
      "color": "#0986ad"
    },
    {
      "id": 367,
      "outputModuleId": 35,
      "outputId": 0,
      "inputModuleId": 1,
      "inputId": 1,
      "color": "#c91847"
    },
    {
      "id": 411,
      "outputModuleId": 2,
      "outputId": 0,
      "inputModuleId": 44,
      "inputId": 2,
      "color": "#0986ad"
    },
    {
      "id": 396,
      "outputModuleId": 28,
      "outputId": 1,
      "inputModuleId": 39,
      "inputId": 0,
      "color": "#0c8e15"
    },
    {
      "id": 418,
      "outputModuleId": 28,
      "outputId": 1,
      "inputModuleId": 17,
      "inputId": 0,
      "color": "#0c8e15"
    },
    {
      "id": 412,
      "outputModuleId": 35,
      "outputId": 0,
      "inputModuleId": 44,
      "inputId": 3,
      "color": "#c9b70e"
    },
    {
      "id": 380,
      "outputModuleId": 37,
      "outputId": 0,
      "inputModuleId": 2,
      "inputId": 2,
      "color": "#c9b70e"
    },
    {
      "id": 381,
      "outputModuleId": 37,
      "outputId": 1,
      "inputModuleId": 35,
      "inputId": 1,
      "color": "#0c8e15"
    },
    {
      "id": 428,
      "outputModuleId": 37,
      "outputId": 0,
      "inputModuleId": 2,
      "inputId": 8,
      "color": "#0c8e15"
    },
    {
      "id": 377,
      "outputModuleId": 36,
      "outputId": 1,
      "inputModuleId": 35,
      "inputId": 2,
      "color": "#c9b70e"
    },
    {
      "id": 376,
      "outputModuleId": 36,
      "outputId": 0,
      "inputModuleId": 2,
      "inputId": 1,
      "color": "#0986ad"
    },
    {
      "id": 440,
      "outputModuleId": 39,
      "outputId": 0,
      "inputModuleId": 36,
      "inputId": 7,
      "color": "#0c8e15"
    },
    {
      "id": 413,
      "outputModuleId": 28,
      "outputId": 1,
      "inputModuleId": 36,
      "inputId": 0,
      "color": "#0986ad"
    },
    {
      "id": 375,
      "outputModuleId": 17,
      "outputId": 1,
      "inputModuleId": 37,
      "inputId": 5,
      "color": "#c91847"
    },
    {
      "id": 426,
      "outputModuleId": 38,
      "outputId": 1,
      "inputModuleId": 37,
      "inputId": 1,
      "color": "#0986ad"
    },
    {
      "id": 427,
      "outputModuleId": 38,
      "outputId": 2,
      "inputModuleId": 37,
      "inputId": 2,
      "color": "#c9b70e"
    },
    {
      "id": 416,
      "outputModuleId": 38,
      "outputId": 2,
      "inputModuleId": 36,
      "inputId": 1,
      "color": "#0986ad"
    },
    {
      "id": 429,
      "outputModuleId": 28,
      "outputId": 2,
      "inputModuleId": 39,
      "inputId": 2,
      "color": "#c9b70e"
    },
    {
      "id": 441,
      "outputModuleId": 39,
      "outputId": 0,
      "inputModuleId": 46,
      "inputId": 0,
      "color": "#c91847"
    },
    {
      "id": 445,
      "outputModuleId": 46,
      "outputId": 3,
      "inputModuleId": 36,
      "inputId": 5,
      "color": "#c91847"
    },
    {
      "id": 438,
      "outputModuleId": 38,
      "outputId": 10,
      "inputModuleId": 36,
      "inputId": 2,
      "color": "#0986ad"
    },
    {
      "id": 444,
      "outputModuleId": 46,
      "outputId": 1,
      "inputModuleId": 36,
      "inputId": 3,
      "color": "#0c8e15"
    },
    {
      "id": 442,
      "outputModuleId": 46,
      "outputId": 0,
      "inputModuleId": 38,
      "inputId": 10,
      "color": "#0986ad"
    }
  ]
}